# xmcd
#
# Track frame offsets:
#	150
#	21600
#	35138
#	58238
#	76763
#	93563
#	111713
#	131487
#	145343
#	165406
#	182024
#	202687
#
# Disc length: 3022 seconds
#
# Revision: 0
# Processed by: cddbd v1.5.2PL0 Copyright (c) Steve Scherf et al.
# Submitted via: dBpowerAMP V4.0
#
DISCID=aa0bcc0c
DTITLE=J.C.Tyler - Mother Mountain
DYEAR=2001
DGENRE=Country
TTITLE0=Sweet Memories of You
TTITLE1=Bad Girl
TTITLE2=Mother Mountain
TTITLE3=Hey Hey
TTITLE4=Love Hurts (with Hugh McDonald)
TTITLE5=Free Woman
TTITLE6=I`ll Hold Out My Hand
TTITLE7=Wherever We Go
TTITLE8=Till We Meet Again
TTITLE9=I Gave You My Life
TTITLE10=Don`t Go
TTITLE11=Free As the Wind
EXTD=
EXTT0=
EXTT1=
EXTT2=
EXTT3=
EXTT4=
EXTT5=
EXTT6=
EXTT7=
EXTT8=
EXTT9=
EXTT10=
EXTT11=
PLAYORDER=
